<?xml version="1.0" encoding="UTF-8" standalone="no"?>
<!-- Created with Inkscape (http://www.inkscape.org/) -->

<svg
   xmlns:osb="http://www.openswatchbook.org/uri/2009/osb"
   xmlns:dc="http://purl.org/dc/elements/1.1/"
   xmlns:cc="http://creativecommons.org/ns#"
   xmlns:rdf="http://www.w3.org/1999/02/22-rdf-syntax-ns#"
   xmlns:svg="http://www.w3.org/2000/svg"
   xmlns="http://www.w3.org/2000/svg"
   xmlns:sodipodi="http://sodipodi.sourceforge.net/DTD/sodipodi-0.dtd"
   xmlns:inkscape="http://www.inkscape.org/namespaces/inkscape"
   id="svg2"
   xml:space="preserve"
   viewBox="0 0 338.44915 1202.1814"
   version="1.1"
   inkscape:version="0.91 r13725"
   sodipodi:docname="food-sesame-oil-fixed.svg"
   width="338.44916"
   height="1202.1814"><sodipodi:namedview
     pagecolor="#ffffff"
     bordercolor="#666666"
     borderopacity="1"
     objecttolerance="10"
     gridtolerance="10"
     guidetolerance="10"
     inkscape:pageopacity="0"
     inkscape:pageshadow="2"
     inkscape:window-width="1916"
     inkscape:window-height="1035"
     id="namedview52446"
     showgrid="false"
     fit-margin-top="0"
     fit-margin-left="0"
     fit-margin-right="0"
     fit-margin-bottom="0"
     inkscape:zoom="0.57398594"
     inkscape:cx="-139.70118"
     inkscape:cy="539.032"
     inkscape:window-x="4"
     inkscape:window-y="1"
     inkscape:window-maximized="1"
     inkscape:current-layer="g53179" /><defs
     id="defs6"><clipPath
       id="clipPath18"><path
         id="path20"
         d="m 0,-0.52 10,0 0,35 -10,0 0,-35 z"
         inkscape:connector-curvature="0" /></clipPath><mask
       id="mask22"><g
         id="g24"><g
           id="g26"
           clip-path="url(#clipPath18)"><path
             id="path28"
             style="fill:#000000;fill-opacity:0.89839998"
             d="m 0,-0.52 10,0 0,35 -10,0 0,-35 z"
             inkscape:connector-curvature="0" /></g></g></mask><clipPath
       id="clipPath34"><path
         id="path36"
         d="m 0,-0.52 10,0 0,35 -10,0 0,-35 z"
         inkscape:connector-curvature="0" /></clipPath><clipPath
       id="clipPath38"><path
         id="path40"
         d="M 0,0 10,0 10,35 0,35 0,0 Z"
         inkscape:connector-curvature="0" /></clipPath><linearGradient
       id="linearGradient46"
       y2="-20.825001"
       gradientUnits="userSpaceOnUse"
       x2="12.1"
       gradientTransform="matrix(0.8,0,0,0.8,0.16016,34.04)"
       y1="-20.825001"><stop
         id="stop48"
         style="stop-color:#ffffff"
         offset="0" /><stop
         id="stop50"
         style="stop-color:#86acb8"
         offset="1" /></linearGradient><clipPath
       id="clipPath78"><path
         id="path80"
         d="m 1,-0.52 9,0 0,4 -9,0 0,-4 z"
         inkscape:connector-curvature="0" /></clipPath><mask
       id="mask82"><g
         id="g84"><g
           id="g86"
           clip-path="url(#clipPath78)"><path
             id="path88"
             style="fill:#000000;fill-opacity:0.28130002"
             d="m 1,-0.52 9,0 0,4 -9,0 0,-4 z"
             inkscape:connector-curvature="0" /></g></g></mask><clipPath
       id="clipPath94"><path
         id="path96"
         d="m 1,-0.52 9,0 0,4 -9,0 0,-4 z"
         inkscape:connector-curvature="0" /></clipPath><clipPath
       id="clipPath98"><path
         id="path100"
         d="M 1,0 10,0 10,4 1,4 1,0 Z"
         inkscape:connector-curvature="0" /></clipPath><linearGradient
       id="linearGradient128"
       y2="-13.572"
       gradientUnits="userSpaceOnUse"
       x2="-0.65369999"
       gradientTransform="matrix(-0.79704,-0.0692,-0.0692,0.79704,-4.8078e-5,35.48)"
       y1="-13.572"
       x1="-9.0352001"><stop
         id="stop130"
         style="stop-color:#7a3300"
         offset="0" /><stop
         id="stop132"
         style="stop-color:#2b0d00"
         offset="1" /></linearGradient><linearGradient
       id="linearGradient148"
       y2="28.674999"
       gradientUnits="userSpaceOnUse"
       x2="12.238"
       gradientTransform="matrix(0.8,0,0,-0.8,2.2628e-8,35.48)"
       y1="28.674999"
       x1="0.26269999"><stop
         id="stop150"
         style="stop-color:#7a3300"
         offset="0" /><stop
         id="stop152"
         style="stop-color:#2b0d00"
         offset="1" /></linearGradient><linearGradient
       id="linearGradient166"
       y2="29.6"
       gradientUnits="userSpaceOnUse"
       x2="10.524"
       gradientTransform="matrix(0.8,0,0,-0.8,2.2628e-8,35.48)"
       y1="29.6"
       x1="0.67479998"><stop
         id="stop168"
         style="stop-color:#eb5c1f"
         offset="0" /><stop
         id="stop170"
         style="stop-color:#8c2a00"
         offset="1" /></linearGradient><linearGradient
       id="linearGradient184"
       y2="28.85"
       gradientUnits="userSpaceOnUse"
       x2="8.4125004"
       gradientTransform="matrix(0.8,0,0,-0.8,2.2628e-8,35.48)"
       y1="28.85"
       x1="1.6875"><stop
         id="stop186"
         style="stop-color:#ebb96f"
         offset="0" /><stop
         id="stop188"
         style="stop-color:#ba861e"
         offset="1" /></linearGradient><clipPath
       id="clipPath196"><path
         id="path198"
         d="m 0,-0.52 5,0 0,34 -5,0 0,-34 z"
         inkscape:connector-curvature="0" /></clipPath><mask
       id="mask200"><g
         id="g202"><g
           id="g204"
           clip-path="url(#clipPath196)"><path
             id="path206"
             style="fill:#000000;fill-opacity:0.69139997"
             d="m 0,-0.52 5,0 0,34 -5,0 0,-34 z"
             inkscape:connector-curvature="0" /></g></g></mask><clipPath
       id="clipPath212"><path
         id="path214"
         d="m 0,-0.52 5,0 0,34 -5,0 0,-34 z"
         inkscape:connector-curvature="0" /></clipPath><clipPath
       id="clipPath216"><path
         id="path218"
         d="M 0,0 5,0 5,34 0,34 0,0 Z"
         inkscape:connector-curvature="0" /></clipPath><linearGradient
       id="linearGradient224"
       y2="-16336"
       gradientUnits="userSpaceOnUse"
       x2="57.537998"
       gradientTransform="matrix(2.5621e-5,-0.8,0.8,-8e-4,13071,39.991)"
       y1="-16336"
       x1="26.313"><stop
         id="stop226"
         style="stop-color:#ffffff"
         offset="0" /><stop
         id="stop228"
         style="stop-color:#000000"
         offset="1" /></linearGradient><clipPath
       id="clipPath256"><path
         id="path258"
         d="m 5,-0.52 4,0 0,34 -4,0 0,-34 z"
         inkscape:connector-curvature="0" /></clipPath><mask
       id="mask260"><g
         id="g262"><g
           id="g264"
           clip-path="url(#clipPath256)"><path
             id="path266"
             style="fill:#000000;fill-opacity:0.23829998"
             d="m 5,-0.52 4,0 0,34 -4,0 0,-34 z"
             inkscape:connector-curvature="0" /></g></g></mask><clipPath
       id="clipPath272"><path
         id="path274"
         d="m 5,-0.52 4,0 0,34 -4,0 0,-34 z"
         inkscape:connector-curvature="0" /></clipPath><clipPath
       id="clipPath276"><path
         id="path278"
         d="M 5,0 9,0 9,34 5,34 5,0 Z"
         inkscape:connector-curvature="0" /></clipPath><linearGradient
       id="linearGradient284"
       y2="-2.1875999"
       gradientUnits="userSpaceOnUse"
       x2="1.9282"
       gradientTransform="matrix(0.8,0,0,0.8,5.8398,33.84)"
       y1="-33.412998"
       x1="1.9282"><stop
         id="stop286"
         style="stop-color:#ffffff"
         offset="0" /><stop
         id="stop288"
         style="stop-color:#000000"
         offset="1" /></linearGradient><clipPath
       id="clipPath316"><path
         id="path318"
         d="m 3,31.48 4,0 0,2 -4,0 0,-2 z"
         inkscape:connector-curvature="0" /></clipPath><mask
       id="mask320"><g
         id="g322"><g
           id="g324"
           clip-path="url(#clipPath316)"><path
             id="path326"
             style="fill:#000000;fill-opacity:0.30080004"
             d="m 3,31.48 4,0 0,2 -4,0 0,-2 z"
             inkscape:connector-curvature="0" /></g></g></mask><clipPath
       id="clipPath332"><path
         id="path334"
         d="m 3,31.48 4,0 0,2 -4,0 0,-2 z"
         inkscape:connector-curvature="0" /></clipPath><clipPath
       id="clipPath336"><path
         id="path338"
         d="m 3,32 4,0 0,2 -4,0 0,-2 z"
         inkscape:connector-curvature="0" /></clipPath><clipPath
       id="clipPath360"><path
         id="path362"
         d="m 3,20.48 3,0 0,1 -3,0 0,-1 z"
         inkscape:connector-curvature="0" /></clipPath><mask
       id="mask364"><g
         id="g366"><g
           id="g368"
           clip-path="url(#clipPath360)"><path
             id="path370"
             style="fill:#000000;fill-opacity:0.35940001"
             d="m 3,20.48 3,0 0,1 -3,0 0,-1 z"
             inkscape:connector-curvature="0" /></g></g></mask><clipPath
       id="clipPath376"><path
         id="path378"
         d="m 3,20.48 3,0 0,1 -3,0 0,-1 z"
         inkscape:connector-curvature="0" /></clipPath><clipPath
       id="clipPath380"><path
         id="path382"
         d="m 3,21 3,0 0,1 -3,0 0,-1 z"
         inkscape:connector-curvature="0" /></clipPath><clipPath
       id="clipPath404"><path
         id="path406"
         d="m 0,-0.52 11,0 0,35 -11,0 0,-35 z"
         inkscape:connector-curvature="0" /></clipPath><mask
       id="mask408"><g
         id="g410"><g
           id="g412"
           clip-path="url(#clipPath404)"><path
             id="path414"
             style="fill:#000000;fill-opacity:0.57029999"
             d="m 0,-0.52 11,0 0,35 -11,0 0,-35 z"
             inkscape:connector-curvature="0" /></g></g></mask><clipPath
       id="clipPath420"><path
         id="path422"
         d="m 0,-0.52 11,0 0,35 -11,0 0,-35 z"
         inkscape:connector-curvature="0" /></clipPath><clipPath
       id="clipPath424"><path
         id="path426"
         d="M 0,0 11,0 11,35 0,35 0,0 Z"
         inkscape:connector-curvature="0" /></clipPath><linearGradient
       id="linearGradient432"
       y2="-21.049999"
       gradientUnits="userSpaceOnUse"
       x2="12.537"
       gradientTransform="matrix(0.8,0,0,0.8,2.2628e-8,34.2)"
       y1="-21.049999"
       x1="-0.037599999"
       spreadMethod="pad"
       osb:paint="gradient"><stop
         id="stop434"
         style="stop-color:#ab5416"
         offset="0" /><stop
         id="stop436"
         style="stop-color:#411800"
         offset="1" /></linearGradient><linearGradient
       id="linearGradient470"
       y2="3.3501"
       gradientUnits="userSpaceOnUse"
       x2="9.2749004"
       gradientTransform="matrix(0.8,0,0,-0.8,2.2628e-8,35.48)"
       y1="3.3501"
       x1="3.5249"><stop
         id="stop472"
         style="stop-color:#f77943"
         offset="0" /><stop
         id="stop474"
         style="stop-color:#8c2a00"
         offset="1" /></linearGradient><linearGradient
       id="linearGradient488"
       y2="2.1747999"
       gradientUnits="userSpaceOnUse"
       x2="9.0622997"
       gradientTransform="matrix(0.8,0,0,-0.8,2.2628e-8,35.48)"
       y1="2.1747999"
       x1="3.7372999"><stop
         id="stop490"
         style="stop-color:#eb5c1f"
         offset="0" /><stop
         id="stop492"
         style="stop-color:#8c2a00"
         offset="1" /></linearGradient><linearGradient
       id="linearGradient506"
       y2="-1.1928999"
       gradientUnits="userSpaceOnUse"
       x2="-2.7391"
       gradientTransform="matrix(-0.79544,-0.0852,-0.0852,0.79544,6.3369e-4,35.48)"
       y1="-1.1928999"
       x1="-9.0752001"><stop
         id="stop508"
         style="stop-color:#eb5c1f"
         offset="0" /><stop
         id="stop510"
         style="stop-color:#8c2a00"
         offset="1" /></linearGradient><filter
       inkscape:collect="always"
       style="color-interpolation-filters:sRGB"
       id="filter53123"
       x="-0.44896653"
       width="1.897933"
       y="-0.042710058"
       height="1.0854201"><feGaussianBlur
         inkscape:collect="always"
         stdDeviation="0.56732979"
         id="feGaussianBlur53125" /></filter></defs><metadata
     id="metadata52444"><rdf:RDF><cc:Work><dc:format>image/svg+xml</dc:format><dc:type
           rdf:resource="http://purl.org/dc/dcmitype/StillImage" /><cc:license
           rdf:resource="http://creativecommons.org/publicdomain/zero/1.0/" /><dc:publisher><cc:Agent
             rdf:about="http://openclipart.org/"><dc:title>Openclipart</dc:title></cc:Agent></dc:publisher><dc:title /><dc:description>remix by j4p4n</dc:description></cc:Work><cc:License
         rdf:about="http://creativecommons.org/publicdomain/zero/1.0/"><cc:permits
           rdf:resource="http://creativecommons.org/ns#Reproduction" /><cc:permits
           rdf:resource="http://creativecommons.org/ns#Distribution" /><cc:permits
           rdf:resource="http://creativecommons.org/ns#DerivativeWorks" /></cc:License></rdf:RDF></metadata><g
     id="g52999"
     transform="matrix(27,0,0,27,0,6.3524579)"><g
       id="g53179"><g
         id="g12204"><path
           sodipodi:nodetypes="sccccccccccccccccscccccc"
           inkscape:connector-curvature="0"
           id="path52992"
           d="M 6.1875,-0.21469793 C 5.0959613,-0.14950342 4.0671395,0.03543012 3.4902344,0.33203125 l -0.023312,2.57911495 -0.1337253,0.522767 0.092306,0.4659613 -0.6481595,9.1098915 -0.070313,3.205078 c -1.2384565,0.374745 -1.958015,1.443371 -2.6367187,2.564453 L 0,40.503906 c 0.14093487,1.065235 0.40222275,2.113868 1.8515625,2.992188 5.3644838,1.222148 6.5475298,0.775075 8.2636715,0.355468 1.133418,-0.492794 1.74112,-1.379717 2.34961,-2.279296 l 0.07031,-22.4375 C 12.021098,17.85047 11.60255,16.508041 9.6152344,16.144531 L 9.5449219,3.2519531 9.3300781,2.7539062 9.2597656,0.47460938 C 8.4334156,-0.22522434 7.2790387,-0.27989244 6.1875,-0.21469793 Z M 3.7755142,3.251706 9.1882912,3.4664262 9.2598892,11.941159 9.1169403,13.010233 3.2061165,13.15217 Z"
           style="fill:#242424;fill-opacity:1;fill-rule:evenodd;stroke:none;stroke-width:1px;stroke-linecap:butt;stroke-linejoin:miter;stroke-opacity:1" /><path
           sodipodi:nodetypes="cccccc"
           inkscape:connector-curvature="0"
           id="path52997"
           d="M 3.8462732,2.2546747 3.276455,5.2462205 3.0627731,13.009994 c 2.5079915,2.248671 4.376776,1.088236 6.3392282,0.427364 L 9.0458648,3.1806293 Z"
           style="opacity:0.162;fill:#c3c3c3;fill-opacity:1;fill-rule:evenodd;stroke:none;stroke-width:1px;stroke-linecap:butt;stroke-linejoin:miter;stroke-opacity:1" /><g
           transform="matrix(1.25,0,0,-1.25,0,44.35)"
           id="g10"><g
             id="g12"><g
               id="g14"><g
                 mask="url(#mask22)"
                 id="g30"><g
                   id="g52"><g
                     clip-path="url(#clipPath34)"
                     id="g54"><g
                       transform="translate(0,-0.52)"
                       id="g56"><g
                         id="g60"><g
                           clip-path="url(#clipPath38)"
                           id="g62"><g
                             id="g64"><g
                               id="g66"><g
                                 id="g68"><g
                                   id="g70" /></g></g></g></g></g></g></g></g></g></g><g
               id="g74"><g
                 mask="url(#mask82)"
                 id="g90"><g
                   id="g102"><g
                     clip-path="url(#clipPath94)"
                     id="g104"><g
                       transform="translate(0,-0.52)"
                       id="g106"><g
                         id="g110"><g
                           clip-path="url(#clipPath98)"
                           id="g112"><g
                             id="g114"><path
                               inkscape:connector-curvature="0"
                               d="M 9.121,2.16 C 9.121,1.812 8.734,1.508 7.961,1.238 7.16,1 6.199,0.879 5.078,0.879 3.961,0.879 3.012,1 2.238,1.238 1.441,1.508 1.039,1.812 1.039,2.16 1.039,2.535 1.441,2.84 2.238,3.078 3.012,3.348 3.961,3.48 5.078,3.48 6.199,3.48 7.16,3.348 7.961,3.078 8.734,2.84 9.121,2.535 9.121,2.16 Z"
                               style="fill:#000000;fill-rule:evenodd"
                               id="path116" /></g></g></g></g></g></g></g></g><g
               id="g118"><g
                 id="g120"><g
                   id="g126"><path
                     inkscape:connector-curvature="0"
                     d="m 7.48,25 c 0,-0.215 -0.828,-0.321 -2.48,-0.321 -1.625,0 -2.441,0.106 -2.441,0.321 0,0.242 0.816,0.359 2.441,0.359 1.652,0 2.48,-0.117 2.48,-0.359 z"
                     style="fill:url(#linearGradient128);fill-rule:evenodd"
                     id="path134" /></g></g></g><path
               inkscape:connector-curvature="0"
               d="m 2.398,24.921 0,0.118 C 3.199,24.8 4.105,24.679 5.121,24.679 6,24.679 6.84,24.785 7.641,25 l 0,-0.122 C 6.84,24.667 6,24.558 5.121,24.558 c -1.016,0 -1.922,0.121 -2.723,0.363 z"
               style="fill:#311000;fill-rule:evenodd"
               id="path136" /><g
               id="g138"><g
                 id="g140"><g
                   id="g146"><path
                     inkscape:connector-curvature="0"
                     d="m 0.238,19.601 c 0.137,0.774 0.387,1.348 0.762,1.719 0.266,0.265 0.574,0.508 0.922,0.719 l 0.437,0.281 0.039,2.601 c 0.801,-0.242 1.707,-0.363 2.723,-0.363 0.879,0 1.719,0.109 2.52,0.32 0.027,-0.984 0.027,-1.839 0,-2.558 l 0.48,-0.281 C 8.469,21.828 8.773,21.585 9.039,21.32 9.414,20.949 9.668,20.375 9.801,19.601 L 9.801,3.16 9.719,2.558 C 9.613,2.109 9.469,1.761 9.281,1.519 8.934,1.121 8.559,0.839 8.16,0.679 7.52,0.386 6.625,0.226 5.48,0.199 l 0,-0.039 -0.921,0 0,0.039 C 3.414,0.226 2.52,0.386 1.879,0.679 1.48,0.839 1.105,1.121 0.762,1.519 0.574,1.761 0.426,2.105 0.32,2.558 l -0.082,0.602 0,16.441 z"
                     style="fill:url(#linearGradient148);fill-rule:evenodd"
                     id="path154" /></g></g></g><g
               id="g156"><g
                 id="g158"><g
                   id="g164"><path
                     inkscape:connector-curvature="0"
                     d="m 6.602,17.039 c 0.664,0.054 1.277,0.136 1.839,0.242 L 8.441,6.48 8.359,6.082 C 8.281,5.789 8.16,5.558 8,5.402 7.465,4.867 6.426,4.574 4.879,4.519 l -0.758,0 C 2.574,4.574 1.535,4.867 1,5.402 0.84,5.558 0.719,5.789 0.641,6.082 l -0.082,0.398 0,10.68 1.16,-0.121 c 0.215,0.613 0.547,1.109 1,1.48 0.426,0.375 0.906,0.563 1.441,0.563 0.535,0 1.028,-0.188 1.481,-0.563 0.425,-0.371 0.746,-0.867 0.961,-1.48 z"
                     style="fill:url(#linearGradient166);fill-rule:evenodd"
                     id="path172" /></g></g></g><g
               id="g174"><g
                 id="g176"><g
                   id="g182"><path
                     inkscape:connector-curvature="0"
                     d="M 6.762,12.402 C 6.762,10.906 6.492,9.652 5.961,8.64 5.453,7.601 4.812,7.082 4.039,7.082 3.293,7.082 2.668,7.601 2.16,8.64 1.625,9.679 1.359,10.933 1.359,12.402 c 0,1.465 0.266,2.719 0.801,3.758 0.508,1.039 1.133,1.558 1.879,1.558 0.773,0 1.414,-0.519 1.922,-1.558 0.531,-1.012 0.801,-2.266 0.801,-3.758 z"
                     style="fill:url(#linearGradient184);fill-rule:evenodd"
                     id="path190" /></g></g></g><g
               id="g192"><g
                 mask="url(#mask200)"
                 id="g208"><g
                   id="g230"><g
                     clip-path="url(#clipPath212)"
                     id="g232"><g
                       transform="translate(0,-0.52)"
                       id="g234"><g
                         id="g238"><g
                           clip-path="url(#clipPath216)"
                           id="g240"><g
                             id="g242"><g
                               id="g244"><g
                                 id="g246"><g
                                   id="g248" /></g></g></g></g></g></g></g></g></g></g><g
               id="g252"><g
                 mask="url(#mask260)"
                 id="g268"><g
                   id="g290"><g
                     clip-path="url(#clipPath272)"
                     id="g292"><g
                       transform="translate(0,-0.52)"
                       id="g294"><g
                         id="g298"><g
                           clip-path="url(#clipPath276)"
                           id="g300"><g
                             id="g302"><g
                               id="g304"><g
                                 id="g306"><g
                                   id="g308" /></g></g></g></g></g></g></g></g></g></g><g
               id="g312"><g
                 mask="url(#mask320)"
                 id="g328"><g
                   id="g340"><g
                     clip-path="url(#clipPath332)"
                     id="g342"><g
                       transform="translate(0,-0.52)"
                       id="g344"><g
                         id="g348"><g
                           clip-path="url(#clipPath336)"
                           id="g350"><g
                             id="g352"><path
                               inkscape:connector-curvature="0"
                               d="m 3.398,33.48 3.442,-0.039 0,-1 c -0.078,-0.109 -0.535,-0.16 -1.36,-0.16 -0.906,0 -1.64,0.16 -2.199,0.481 l 0.117,0.718 z"
                               style="fill:#000000;fill-rule:evenodd"
                               id="path354" /></g></g></g></g></g></g></g></g><g
               id="g356"><g
                 mask="url(#mask364)"
                 id="g372"><g
                   id="g384"><g
                     clip-path="url(#clipPath376)"
                     id="g386"><g
                       transform="translate(0,-0.52)"
                       id="g388"><g
                         id="g392"><g
                           clip-path="url(#clipPath380)"
                           id="g394"><g
                             id="g396"><path
                               inkscape:connector-curvature="0"
                               d="m 4.281,21.961 c 0.774,0 1.16,-0.106 1.16,-0.32 0,-0.106 -0.136,-0.227 -0.402,-0.36 -0.32,-0.136 -0.625,-0.16 -0.918,-0.082 -0.293,0.082 -0.387,0.227 -0.281,0.442 0.105,0.214 0.254,0.32 0.441,0.32 z"
                               style="fill:#ffffff;fill-rule:evenodd"
                               id="path398" /></g></g></g></g></g></g></g></g><g
               id="g400"><g
                 mask="url(#mask408)"
                 id="g416"><g
                   id="g438"><g
                     clip-path="url(#clipPath420)"
                     id="g440"><g
                       transform="translate(0,-0.52)"
                       id="g442"><g
                         id="g446"><g
                           clip-path="url(#clipPath424)"
                           id="g448"><g
                             id="g450"><g
                               id="g452"><g
                                 id="g454"><g
                                   id="g456" /></g></g></g></g></g></g></g></g></g></g><g
               id="g460"><g
                 id="g462"><g
                   id="g468"><path
                     inkscape:connector-curvature="0"
                     d="m 7.441,32.8 c 0,-0.187 -0.226,-0.347 -0.679,-0.48 -0.457,-0.133 -1,-0.199 -1.641,-0.199 -0.641,0 -1.176,0.066 -1.601,0.199 -0.454,0.133 -0.68,0.293 -0.68,0.48 0,0.188 0.226,0.348 0.68,0.481 0.425,0.133 0.96,0.199 1.601,0.199 0.641,0 1.184,-0.066 1.641,-0.199 0.453,-0.133 0.679,-0.293 0.679,-0.481 z"
                     style="fill:url(#linearGradient470);fill-rule:evenodd"
                     id="path476" /></g></g></g><g
               id="g478"><g
                 id="g480"><g
                   id="g486"><path
                     inkscape:connector-curvature="0"
                     d="m 2.961,32.839 0,2.243 4.238,0 0,-2.122 0.039,-0.082 c 0,-0.32 -0.703,-0.476 -2.117,-0.476 -1.254,0 -1.961,0.144 -2.121,0.437 l -0.039,0 z"
                     style="fill:url(#linearGradient488);fill-rule:evenodd"
                     id="path494" /></g></g></g><g
               id="g496"><g
                 id="g498"><g
                   id="g504"><path
                     inkscape:connector-curvature="0"
                     d="m 7.238,35.082 c 0,-0.27 -0.703,-0.403 -2.117,-0.403 -1.441,0 -2.16,0.133 -2.16,0.403 0,0.105 0.211,0.199 0.641,0.277 0.425,0.082 0.933,0.121 1.519,0.121 0.559,0 1.051,-0.039 1.481,-0.121 0.425,-0.078 0.636,-0.172 0.636,-0.277 z"
                     style="fill:url(#linearGradient506);fill-rule:evenodd"
                     id="path512" /></g></g></g></g></g><g
           transform="scale(0.92582382,1.0801191)"
           style="font-style:normal;font-weight:normal;font-size:1.78554928px;line-height:114.99999762%;font-family:sans-serif;letter-spacing:0px;word-spacing:0px;opacity:0.87699998;fill:#271c1c;fill-opacity:1;stroke:none;stroke-width:1px;stroke-linecap:butt;stroke-linejoin:miter;stroke-opacity:1"
           id="text53127"><path
             style="font-style:normal;font-variant:normal;font-weight:bold;font-stretch:normal;line-height:114.99999762%;font-family:'Tamil MN';-inkscape-font-specification:'Tamil MN Bold';text-align:center;text-anchor:middle;fill:#271c1c;fill-opacity:1"
             d="M 2.6320448,25.839075 C 2.2756131,26.027294 2.0531327,25.19948 2.4295564,25.642543 2.8294422,25.913254 2.956565,25.249214 2.4968191,25.26179 1.9208346,25.058903 2.3151829,24.342217 2.8193314,24.576948 c 0.3044839,0.05117 0.3142671,0.497683 7.377e-4,0.179 -0.5006284,-0.318194 -0.383837,0.385456 0.024922,0.425311 0.4815404,0.182722 0.2404099,0.702371 -0.2129464,0.657816 z"
             id="path53134"
             inkscape:connector-curvature="0" /><path
             style="font-style:normal;font-variant:normal;font-weight:bold;font-stretch:normal;line-height:114.99999762%;font-family:'Tamil MN';-inkscape-font-specification:'Tamil MN Bold';text-align:center;text-anchor:middle;fill:#271c1c;fill-opacity:1"
             d="m 3.7680657,25.840819 c -0.515046,0.03835 -0.668106,-0.789329 -0.180535,-0.949623 0.3722636,-0.237789 0.9400205,0.494374 0.2862109,0.375104 -0.6522231,-0.174513 -0.060687,0.702384 0.2540669,0.238634 0.3326573,-0.08436 -0.2017919,0.41305 -0.3597428,0.335885 z M 3.888381,25.168623 c 0.010153,-0.389912 -0.5664548,0.08737 -0.073011,10e-6 0.024337,-3e-6 0.048675,-7e-6 0.073011,-10e-6 z"
             id="path53136"
             inkscape:connector-curvature="0" /><path
             style="font-style:normal;font-variant:normal;font-weight:bold;font-stretch:normal;line-height:114.99999762%;font-family:'Tamil MN';-inkscape-font-specification:'Tamil MN Bold';text-align:center;text-anchor:middle;fill:#271c1c;fill-opacity:1"
             d="m 4.5396531,25.55834 c 0.066777,0.38378 0.557979,-0.104029 0.1026887,-0.11522 -0.6277761,-0.240626 0.2439552,-0.958632 0.366825,-0.363915 -0.2695534,-0.188236 -0.4863354,0.04485 -0.1551985,0.204158 0.6444431,0.135842 -0.092046,0.919409 -0.4190563,0.427775 -0.081805,-0.07587 0.01977,-0.166855 0.1047411,-0.152798 z"
             id="path53138"
             inkscape:connector-curvature="0" /><path
             style="font-style:normal;font-variant:normal;font-weight:bold;font-stretch:normal;line-height:114.99999762%;font-family:'Tamil MN';-inkscape-font-specification:'Tamil MN Bold';text-align:center;text-anchor:middle;fill:#271c1c;fill-opacity:1"
             d="m 5.7611155,25.336018 c -0.4475405,0.01059 0.0095,0.61918 -5.125e-4,0.09944 l 5.125e-4,-0.09944 z m 0.285095,0.483877 c -0.3379676,0.03332 -1.0439435,0.06592 -0.6727618,-0.462449 0.2556393,-0.01337 0.6039332,-0.356498 0.1498078,-0.341769 -0.093126,0.373279 -0.4209411,-0.01873 -0.050092,-0.125246 0.4844093,-0.246151 0.7012621,0.368842 0.5622437,0.745051 -0.00236,0.06154 -0.00226,0.123889 0.010802,0.184413 z"
             id="path53140"
             inkscape:connector-curvature="0" /><path
             style="font-style:normal;font-variant:normal;font-weight:bold;font-stretch:normal;line-height:114.99999762%;font-family:'Tamil MN';-inkscape-font-specification:'Tamil MN Bold';text-align:center;text-anchor:middle;fill:#271c1c;fill-opacity:1"
             d="m 7.4481457,25.184316 c -0.3539448,-0.415919 -0.2726562,0.45976 -0.335989,0.635557 -0.5267267,0.163795 0.023419,-1.07299 -0.5295528,-0.66756 -0.020689,0.2554 0.1087138,0.888367 -0.2955144,0.616392 0.01721,-0.2938 0.0029,-0.58971 0.00759,-0.884349 0.4496893,0.0776 0.9809006,-0.08911 1.3727673,0.09615 0.071704,0.235058 0.2448755,1.044177 -0.220157,0.791709 6.265e-4,-0.195482 0.00161,-0.391562 8.529e-4,-0.587898 z"
             id="path53142"
             inkscape:connector-curvature="0" /><path
             style="font-style:normal;font-variant:normal;font-weight:bold;font-stretch:normal;line-height:114.99999762%;font-family:'Tamil MN';-inkscape-font-specification:'Tamil MN Bold';text-align:center;text-anchor:middle;fill:#271c1c;fill-opacity:1"
             d="m 8.3888718,25.840819 c -0.515046,0.03835 -0.6681059,-0.789329 -0.1805351,-0.949623 0.3722642,-0.237789 0.9400196,0.494374 0.2862099,0.375104 -0.6522227,-0.174513 -0.060687,0.702383 0.254067,0.238634 0.3326568,-0.08436 -0.2017904,0.413051 -0.3597418,0.335885 z m 0.1203153,-0.672196 c 0.010153,-0.389912 -0.5664548,0.08737 -0.073011,10e-6 0.024337,-3e-6 0.048675,-7e-6 0.073011,-10e-6 z"
             id="path53144"
             inkscape:connector-curvature="0" /><path
             style="font-style:normal;font-variant:normal;font-weight:bold;font-stretch:normal;line-height:114.99999762%;font-family:'Tamil MN';-inkscape-font-specification:'Tamil MN Bold';text-align:center;text-anchor:middle;fill:#271c1c;fill-opacity:1"
             d="M 4.9616287,27.901176 C 4.3261953,27.981893 3.9542619,27.005657 4.5654131,26.70404 5.1017472,26.332622 5.9614249,26.949526 5.5927844,27.557514 5.4662466,27.77553 5.2145792,27.916828 4.9616287,27.901176 Z m 0,-0.105494 c 0.4547792,-0.06222 0.5238762,-0.869903 0.1251047,-1.05204 -0.5020677,-0.159052 -0.602162,0.549822 -0.4168112,0.872098 0.055742,0.107657 0.1694038,0.180823 0.2917065,0.179942 z"
             id="path53146"
             inkscape:connector-curvature="0" /><path
             style="font-style:normal;font-variant:normal;font-weight:bold;font-stretch:normal;line-height:114.99999762%;font-family:'Tamil MN';-inkscape-font-specification:'Tamil MN Bold';text-align:center;text-anchor:middle;fill:#271c1c;fill-opacity:1"
             d="m 5.8884055,26.988348 c 0.3783051,-0.24502 0.2707481,0.182213 0.2833513,0.401379 -0.04151,0.18929 0.1292653,0.580268 -0.2010688,0.489134 -0.1715907,-0.07405 -0.041869,-0.371325 -0.082282,-0.542703 0,-0.115937 0,-0.231873 0,-0.34781 z m -0.012206,-0.349612 c 0.2447779,-0.508265 0.4261334,0.53858 0,0 z"
             id="path53148"
             inkscape:connector-curvature="0" /><path
             style="font-style:normal;font-variant:normal;font-weight:bold;font-stretch:normal;line-height:114.99999762%;font-family:'Tamil MN';-inkscape-font-specification:'Tamil MN Bold';text-align:center;text-anchor:middle;fill:#271c1c;fill-opacity:1"
             d="m 6.7018418,27.873276 c -0.3883461,0.136401 -0.2632097,-0.257683 -0.2816076,-0.479848 0,-0.277428 0,-0.554857 0,-0.832286 0.3775454,-0.245002 0.2683626,0.183181 0.2816076,0.401379 0,0.303584 0,0.607174 0,0.910755 z"
             id="path53150"
             inkscape:connector-curvature="0" /></g><path
           style="opacity:0.15500004;fill:#ffffff;fill-rule:evenodd;stroke:none;stroke-width:0.03703704px;stroke-linecap:butt;stroke-linejoin:miter;stroke-opacity:1;filter:url(#filter53123)"
           d="M 4.5513455,9.2455072 3.712507,16.666002 1.8412518,22.215241 c 0,0 0.7097864,19.22876 0.7097864,18.90613 0,-0.32263 1.1614688,-12.518052 1.1614688,-12.518052 L 3.5189288,21.892611 4.8739757,17.053158 Z"
           id="path53105"
           inkscape:connector-curvature="0" /></g></g></g></svg>